# xmcd CD database file
#
# Track frame offsets:
#	150
#	14304
#	29353
#	50571
#	65519
#	87134
#	107314
#	129232
#	147653
#	166224
#	176613
#	194114
#	212326
#	231524
#	247615
#	262434
#	277400
#
# Disc length: 3912 seconds
#
# Revision: 0
# Processed by: cddbd v1.5.1PL0 Copyright (c) Steve Scherf et al.
# Submitted via: CD2WAV32(EN) R3.19
#
DISCID=fb0f4611
DTITLE=玉置浩二 Koji Tamaki - 完美收成最精選 Best Harvest
DYEAR=1900
DGENRE=
TTITLE0=新手
TTITLE1=願望
TTITLE2=Happy Birthday∼愛的出現∼
TTITLE3=Grand Love
TTITLE4=曾經愛過
TTITLE5=酒紅色的心
TTITLE6=告別憂傷
TTITLE7=夏末的和聲
TTITLE8=曾幾虹色
TTITLE9=凡人
TTITLE10=aibo
TTITLE11=常夜燈
TTITLE12=寂寞的人
TTITLE13=就用這步調
TTITLE14=心甘情願
TTITLE15=隨便怎樣都好
TTITLE16=只有你
EXTD=
EXTT0=
EXTT1=
EXTT2=
EXTT3=
EXTT4=
EXTT5=
EXTT6=
EXTT7=
EXTT8=
EXTT9=
EXTT10=
EXTT11=
EXTT12=
EXTT13=
EXTT14=
EXTT15=
EXTT16=
PLAYORDER=
